<svg width="85" height="85" viewBox="0 0 85 85" fill="none" xmlns="http://www.w3.org/2000/svg">
<path d="M7.08337 74.3749V68.7082C9.20837 68.5312 10.9054 67.9114 12.1745 66.8489C13.4436 65.7864 15.4358 65.2551 18.1511 65.2551C20.8664 65.2551 23.0799 65.8897 24.7917 67.1588C26.5035 68.4279 28.4809 69.0624 30.724 69.0624C32.9671 69.0624 34.8117 68.4279 36.2579 67.1588C37.704 65.8897 39.7848 65.2551 42.5 65.2551C45.2153 65.2551 47.4289 65.8897 49.1407 67.1588C50.8525 68.4279 52.8299 69.0624 55.073 69.0624C57.316 69.0624 59.1754 68.4279 60.6511 67.1588C62.1268 65.8897 64.2223 65.2551 66.9375 65.2551C69.6528 65.2551 71.6303 65.7864 72.8698 66.8489C74.1094 67.9114 75.7917 68.5312 77.9167 68.7082V74.3749C75.8507 74.1978 74.0651 73.5338 72.5599 72.3827C71.0547 71.2317 69.1806 70.6562 66.9375 70.6562C64.6945 70.6562 62.7761 71.276 61.1823 72.5155C59.5886 73.7551 57.5521 74.3749 55.073 74.3749C52.5938 74.3749 50.4393 73.7551 48.6094 72.5155C46.7796 71.276 44.7431 70.6562 42.5 70.6562C40.257 70.6562 38.2943 71.276 36.612 72.5155C34.9297 73.7551 32.849 74.3749 30.3698 74.3749C27.8907 74.3749 25.7952 73.7551 24.0834 72.5155C22.3716 71.276 20.3941 70.6562 18.1511 70.6562C15.908 70.6562 14.0191 71.2317 12.4844 72.3827C10.9497 73.5338 9.14935 74.1978 7.08337 74.3749ZM7.08337 57.7291V52.4166C9.20837 52.2395 10.9054 51.6345 12.1745 50.6015C13.4436 49.5685 15.4358 49.052 18.1511 49.052C20.8664 49.052 23.0209 49.6128 24.6146 50.7343C26.2084 51.8558 28.1268 52.4166 30.3698 52.4166C32.6129 52.4166 34.5165 51.8558 36.0808 50.7343C37.645 49.6128 39.7848 49.052 42.5 49.052C45.2153 49.052 47.3698 49.6128 48.9636 50.7343C50.5573 51.8558 52.4757 52.4166 54.7188 52.4166C56.9618 52.4166 58.8803 51.8558 60.474 50.7343C62.0678 49.6128 64.2223 49.052 66.9375 49.052C69.6528 49.052 71.6303 49.5685 72.8698 50.6015C74.1094 51.6345 75.7917 52.2395 77.9167 52.4166V57.7291C75.8507 57.552 74.0651 56.8879 72.5599 55.7369C71.0547 54.5859 69.1806 54.0103 66.9375 54.0103C64.6945 54.0103 62.7761 54.6301 61.1823 55.8697C59.5886 57.1093 57.5521 57.7291 55.073 57.7291C52.5938 57.7291 50.4393 57.1093 48.6094 55.8697C46.7796 54.6301 44.7431 54.0103 42.5 54.0103C40.257 54.0103 38.3533 54.6301 36.7891 55.8697C35.2249 57.1093 33.2032 57.7291 30.724 57.7291C28.2448 57.7291 26.0903 57.1093 24.2605 55.8697C22.4306 54.6301 20.3941 54.0103 18.1511 54.0103C15.908 54.0103 14.0191 54.5859 12.4844 55.7369C10.9497 56.8879 9.14935 57.552 7.08337 57.7291ZM25.5 39.3124L37.4532 27.3593L32.6719 22.578C30.665 20.5711 28.6285 19.2282 26.5625 18.5494C24.4966 17.8706 21.8698 17.5312 18.6823 17.5312V10.5364C22.9323 10.5364 26.4297 11.0676 29.1745 12.1301C31.9193 13.1926 34.5903 15.0225 37.1875 17.6197L59.5886 40.0208C58.9393 40.552 58.1867 40.9357 57.3308 41.1718C56.4749 41.4079 55.6042 41.526 54.7188 41.526C52.4757 41.526 50.5426 40.9062 48.9193 39.6666C47.296 38.427 45.1563 37.8072 42.5 37.8072C39.8438 37.8072 37.7188 38.427 36.125 39.6666C34.5313 40.9062 32.6129 41.526 30.3698 41.526C29.3073 41.526 28.3481 41.3194 27.4922 40.9062C26.6363 40.493 25.9723 39.9617 25.5 39.3124ZM59.1459 10.8905C61.507 10.8905 63.4992 11.7022 65.1224 13.3254C66.7457 14.9487 67.5573 16.9409 67.5573 19.302C67.5573 21.6631 66.7457 23.6553 65.1224 25.2786C63.4992 26.9018 61.507 27.7135 59.1459 27.7135C56.7848 27.7135 54.7926 26.9018 53.1693 25.2786C51.546 23.6553 50.7344 21.6631 50.7344 19.302C50.7344 16.9409 51.546 14.9487 53.1693 13.3254C54.7926 11.7022 56.7848 10.8905 59.1459 10.8905Z" fill="white"/>
</svg>
