<svg width="85" height="85" viewBox="0 0 85 85" fill="none" xmlns="http://www.w3.org/2000/svg">
<path d="M42.5 42.4114C38.6041 42.4114 35.4166 41.1718 32.9375 38.6926C30.4583 36.2135 29.2187 33.026 29.2187 29.1301C29.2187 25.2343 30.4583 22.0468 32.9375 19.5676C35.4166 17.0885 38.6041 15.8489 42.5 15.8489C46.3958 15.8489 49.5833 17.0885 52.0625 19.5676C54.5416 22.0468 55.7812 25.2343 55.7812 29.1301C55.7812 33.026 54.5416 36.2135 52.0625 38.6926C49.5833 41.1718 46.3958 42.4114 42.5 42.4114ZM14.1666 70.8333V62.5103C14.1666 60.2673 14.7274 58.3489 15.8489 56.7551C16.9704 55.1614 18.4166 53.9513 20.1875 53.1249C24.1423 51.3541 27.9349 50.026 31.5651 49.1405C35.1953 48.2551 38.8402 47.8124 42.5 47.8124C46.1597 47.8124 49.7899 48.2699 53.3906 49.1848C56.9913 50.0997 60.7691 51.4131 64.7239 53.1249C66.5538 53.9513 68.0295 55.1614 69.151 56.7551C70.2725 58.3489 70.8333 60.2673 70.8333 62.5103V70.8333H14.1666ZM19.4791 65.5208H65.5208V62.5103C65.5208 61.5659 65.2404 60.6657 64.6796 59.8098C64.1189 58.9539 63.4253 58.3194 62.5989 57.9062C58.8211 56.0763 55.368 54.822 52.2395 54.1432C49.1111 53.4643 45.8645 53.1249 42.5 53.1249C39.1354 53.1249 35.8593 53.4643 32.6718 54.1432C29.4843 54.822 26.0312 56.0763 22.3125 57.9062C21.4861 58.3194 20.8073 58.9539 20.276 59.8098C19.7448 60.6657 19.4791 61.5659 19.4791 62.5103V65.5208ZM42.5 37.0989C44.802 37.0989 46.7057 36.3463 48.2109 34.8411C49.7161 33.3359 50.4687 31.4322 50.4687 29.1301C50.4687 26.828 49.7161 24.9244 48.2109 23.4192C46.7057 21.914 44.802 21.1614 42.5 21.1614C40.1979 21.1614 38.2942 21.914 36.789 23.4192C35.2838 24.9244 34.5312 26.828 34.5312 29.1301C34.5312 31.4322 35.2838 33.3359 36.789 34.8411C38.2942 36.3463 40.1979 37.0989 42.5 37.0989Z" fill="white"/>
</svg>
