<svg width="85" height="85" viewBox="0 0 85 85" fill="none" xmlns="http://www.w3.org/2000/svg">
<path d="M39.8437 77.9166V60.651L26.651 73.8437L22.8437 70.1249L39.8437 53.1249V45.1562H31.8749L15.2291 61.802L11.3333 58.1718L24.3489 45.1562H7.08325V39.8437H24.3489L11.0676 26.5624L14.8749 22.7551L31.8749 39.8437H39.8437V31.7864L23.1978 15.1405L26.9166 11.2447L39.8437 24.2603V7.08325H45.1562V24.2603L58.4374 10.9791L62.1562 14.7864L45.1562 31.7864V39.8437H53.2135L69.9478 23.1093L73.7551 26.828L60.7395 39.8437H77.9166V45.1562H60.7395L73.8437 58.3489L70.2135 62.1562L53.2135 45.1562H45.1562V53.1249L62.1562 70.2135L58.526 74.0208L45.1562 60.651V77.9166H39.8437Z" fill="white"/>
</svg>
