<svg width="85" height="85" viewBox="0 0 85 85" fill="none" xmlns="http://www.w3.org/2000/svg">
<path d="M7.08325 77.9166V30.6353C7.08325 25.7951 8.33759 21.5451 10.8463 17.8853C13.355 14.2256 16.8524 11.5103 21.3385 9.7395C24.644 8.49992 28.1562 7.74731 31.8749 7.48169C35.5937 7.21606 39.1353 7.08325 42.4999 7.08325C45.8645 7.08325 49.4209 7.21606 53.1692 7.48169C56.9175 7.74731 60.4444 8.49992 63.7499 9.7395C68.236 11.5103 71.7187 14.2256 74.1978 17.8853C76.677 21.5451 77.9166 25.7951 77.9166 30.6353V77.9166H7.08325ZM30.7239 72.6041H54.276L47.1041 65.4322H37.8958L30.7239 72.6041ZM25.2343 47.1041H59.7655V31.6093H25.2343V47.1041ZM54.8958 58.3489C55.8992 58.3489 56.7256 58.0242 57.3749 57.3749C58.0242 56.7256 58.3489 55.8992 58.3489 54.8958C58.3489 53.8923 58.0242 53.0659 57.3749 52.4166C56.7256 51.7673 55.8992 51.4426 54.8958 51.4426C53.8923 51.4426 53.0659 51.7673 52.4166 52.4166C51.7673 53.0659 51.4426 53.8923 51.4426 54.8958C51.4426 55.8992 51.7673 56.7256 52.4166 57.3749C53.0659 58.0242 53.8923 58.3489 54.8958 58.3489ZM30.1041 58.3489C31.1076 58.3489 31.9339 58.0242 32.5833 57.3749C33.2326 56.7256 33.5572 55.8992 33.5572 54.8958C33.5572 53.8923 33.2326 53.0659 32.5833 52.4166C31.9339 51.7673 31.1076 51.4426 30.1041 51.4426C29.1006 51.4426 28.2742 51.7673 27.6249 52.4166C26.9756 53.0659 26.651 53.8923 26.651 54.8958C26.651 55.8992 26.9756 56.7256 27.6249 57.3749C28.2742 58.0242 29.1006 58.3489 30.1041 58.3489ZM12.3958 72.6041H26.4739V70.8333L31.8749 65.4322C29.6319 65.4322 27.3003 64.5616 24.8801 62.8202C22.46 61.0789 21.2499 58.4374 21.2499 54.8958V31.6093C21.2499 27.3593 23.2274 24.5702 27.1822 23.2421C31.1371 21.914 36.243 21.2499 42.4999 21.2499C47.8124 21.2499 52.6822 21.914 57.1093 23.2421C61.5364 24.5702 63.7499 27.3593 63.7499 31.6093V54.8958C63.7499 58.2013 62.6727 60.7838 60.5181 62.6432C58.3636 64.5025 55.8992 65.4322 53.1249 65.4322L58.526 70.8333V72.6041H72.6041V30.6353C72.6041 26.7395 71.6744 23.5077 69.815 20.94C67.9556 18.3723 65.1961 16.3211 61.5364 14.7864C58.7621 13.6649 55.6926 12.986 52.328 12.7499C48.9635 12.5138 45.6874 12.3958 42.4999 12.3958C39.3124 12.3958 36.0511 12.5138 32.7161 12.7499C29.381 12.986 26.3263 13.6649 23.552 14.7864C19.8923 16.3211 17.118 18.3723 15.2291 20.94C13.3402 23.5077 12.3958 26.7395 12.3958 30.6353V72.6041Z" fill="white"/>
</svg>
