<svg width="169" height="90" viewBox="0 0 169 90" fill="none" xmlns="http://www.w3.org/2000/svg">
<path d="M22.25 89.75C14.7188 89.75 9.28125 87.875 5.9375 84.125C2.625 80.375 0.96875 74.4062 0.96875 66.2188V58.1562H17.2812V68.4688C17.2812 70.375 17.5625 71.875 18.125 72.9688C18.7188 74.0312 19.7344 74.5625 21.1719 74.5625C22.6719 74.5625 23.7031 74.125 24.2656 73.25C24.8594 72.375 25.1562 70.9375 25.1562 68.9375C25.1562 66.4062 24.9062 64.2969 24.4062 62.6094C23.9062 60.8906 23.0312 59.2656 21.7812 57.7344C20.5625 56.1719 18.8594 54.3594 16.6719 52.2969L9.26562 45.2656C3.73438 40.0469 0.96875 34.0781 0.96875 27.3594C0.96875 20.3281 2.59375 14.9688 5.84375 11.2812C9.125 7.59375 13.8594 5.75 20.0469 5.75C27.6094 5.75 32.9688 7.76562 36.125 11.7969C39.3125 15.8281 40.9062 21.9531 40.9062 30.1719H24.125V24.5C24.125 23.375 23.7969 22.5 23.1406 21.875C22.5156 21.25 21.6562 20.9375 20.5625 20.9375C19.25 20.9375 18.2812 21.3125 17.6562 22.0625C17.0625 22.7812 16.7656 23.7187 16.7656 24.875C16.7656 26.0313 17.0781 27.2812 17.7031 28.625C18.3281 29.9688 19.5625 31.5156 21.4062 33.2656L30.9219 42.4062C32.8281 44.2188 34.5781 46.1406 36.1719 48.1719C37.7656 50.1719 39.0469 52.5156 40.0156 55.2031C40.9844 57.8594 41.4688 61.1094 41.4688 64.9531C41.4688 72.7031 40.0312 78.7812 37.1562 83.1875C34.3125 87.5625 29.3438 89.75 22.25 89.75Z" fill="#CC6633"/>
<path d="M58.145 14.375V0.40625H74.9263V14.375H58.145ZM58.145 89V18.6875H74.9263V89H58.145ZM93.1025 89V6.5H110.165V89H93.1025ZM141.232 89.75C137.326 89.75 134.341 88.8438 132.279 87.0312C130.247 85.2188 128.857 82.7344 128.107 79.5781C127.357 76.4219 126.982 72.8438 126.982 68.8438C126.982 64.5625 127.404 61.0625 128.247 58.3438C129.091 55.5938 130.529 53.3438 132.56 51.5938C134.622 49.8438 137.451 48.3594 141.044 47.1406L151.451 43.5781V36.3594C151.451 32.5781 150.216 30.6875 147.747 30.6875C145.497 30.6875 144.372 32.2188 144.372 35.2812V39.5H128.06C128.029 39.25 128.013 38.9375 128.013 38.5625C128.013 38.1562 128.013 37.7031 128.013 37.2031C128.013 30.2031 129.654 25.25 132.935 22.3438C136.247 19.4062 141.482 17.9375 148.638 17.9375C152.388 17.9375 155.747 18.6094 158.716 19.9531C161.685 21.2656 164.029 23.2188 165.747 25.8125C167.497 28.4062 168.372 31.6094 168.372 35.4219V89H151.685V80.6562C150.872 83.5938 149.529 85.8438 147.654 87.4062C145.779 88.9688 143.638 89.75 141.232 89.75ZM147.841 76.7188C149.216 76.7188 150.154 76.1406 150.654 74.9844C151.154 73.8281 151.404 72.5781 151.404 71.2344V51.6406C149.091 52.5781 147.294 53.7656 146.013 55.2031C144.732 56.6094 144.091 58.6875 144.091 61.4375V70.4844C144.091 74.6406 145.341 76.7188 147.841 76.7188Z" fill="white"/>
</svg>
