<svg width="85" height="46" viewBox="0 0 85 46" fill="none" xmlns="http://www.w3.org/2000/svg">
<path d="M11.625 45.375C7.85938 45.375 5.14062 44.4375 3.46875 42.5625C1.8125 40.6875 0.984375 37.7031 0.984375 33.6094V29.5781H9.14062V34.7344C9.14062 35.6875 9.28125 36.4375 9.5625 36.9844C9.85938 37.5156 10.3672 37.7812 11.0859 37.7812C11.8359 37.7812 12.3516 37.5625 12.6328 37.125C12.9297 36.6875 13.0781 35.9688 13.0781 34.9688C13.0781 33.7031 12.9531 32.6484 12.7031 31.8047C12.4531 30.9453 12.0156 30.1328 11.3906 29.3672C10.7812 28.5859 9.92969 27.6797 8.83594 26.6484L5.13281 23.1328C2.36719 20.5234 0.984375 17.5391 0.984375 14.1797C0.984375 10.6641 1.79687 7.98438 3.42188 6.14062C5.0625 4.29687 7.42969 3.375 10.5234 3.375C14.3047 3.375 16.9844 4.38281 18.5625 6.39844C20.1562 8.41406 20.9531 11.4766 20.9531 15.5859H12.5625V12.75C12.5625 12.1875 12.3984 11.75 12.0703 11.4375C11.7578 11.125 11.3281 10.9688 10.7812 10.9688C10.125 10.9688 9.64062 11.1562 9.32812 11.5312C9.03125 11.8906 8.88281 12.3594 8.88281 12.9375C8.88281 13.5156 9.03906 14.1406 9.35156 14.8125C9.66406 15.4844 10.2812 16.2578 11.2031 17.1328L15.9609 21.7031C16.9141 22.6094 17.7891 23.5703 18.5859 24.5859C19.3828 25.5859 20.0234 26.7578 20.5078 28.1016C20.9922 29.4297 21.2344 31.0547 21.2344 32.9766C21.2344 36.8516 20.5156 39.8906 19.0781 42.0938C17.6562 44.2812 15.1719 45.375 11.625 45.375Z" fill="#CC6633"/>
<path d="M29.5725 7.6875V0.703125H37.9631V7.6875H29.5725ZM29.5725 45V9.84375H37.9631V45H29.5725ZM47.0513 45V3.75H55.5825V45H47.0513ZM71.1159 45.375C69.1628 45.375 67.6706 44.9219 66.6394 44.0156C65.6237 43.1094 64.9284 41.8672 64.5534 40.2891C64.1784 38.7109 63.9909 36.9219 63.9909 34.9219C63.9909 32.7812 64.2019 31.0312 64.6237 29.6719C65.0456 28.2969 65.7644 27.1719 66.78 26.2969C67.8112 25.4219 69.2253 24.6797 71.0222 24.0703L76.2253 22.2891V18.6797C76.2253 16.7891 75.6081 15.8438 74.3737 15.8438C73.2487 15.8438 72.6862 16.6094 72.6862 18.1406V20.25H64.53C64.5144 20.125 64.5066 19.9688 64.5066 19.7812C64.5066 19.5781 64.5066 19.3516 64.5066 19.1016C64.5066 15.6016 65.3269 13.125 66.9675 11.6719C68.6237 10.2031 71.2409 9.46875 74.8191 9.46875C76.6941 9.46875 78.3737 9.80469 79.8581 10.4766C81.3425 11.1328 82.5144 12.1094 83.3737 13.4062C84.2487 14.7031 84.6862 16.3047 84.6862 18.2109V45H76.3425V40.8281C75.9362 42.2969 75.2644 43.4219 74.3269 44.2031C73.3894 44.9844 72.3191 45.375 71.1159 45.375ZM74.4206 38.8594C75.1081 38.8594 75.5769 38.5703 75.8269 37.9922C76.0769 37.4141 76.2019 36.7891 76.2019 36.1172V26.3203C75.0456 26.7891 74.1472 27.3828 73.5066 28.1016C72.8659 28.8047 72.5456 29.8438 72.5456 31.2188V35.7422C72.5456 37.8203 73.1706 38.8594 74.4206 38.8594Z" fill="white"/>
</svg>
