<svg width="29" height="27" viewBox="0 0 29 27" fill="none" xmlns="http://www.w3.org/2000/svg">
<path d="M23.3622 4.03552C23.0664 4.04782 22.7878 4.12463 22.5402 4.21067H22.5368C22.2857 4.29978 21.0923 4.74841 19.2798 5.42749C17.4673 6.10965 15.1149 6.99461 12.7796 7.87343C8.11596 9.62799 3.53142 11.3549 3.53142 11.3549L3.58645 11.3365C3.58645 11.3365 3.27004 11.4286 2.93987 11.6314C2.77135 11.7298 2.58563 11.865 2.42398 12.077C2.26234 12.289 2.13165 12.6147 2.1798 12.9497C2.2589 13.5181 2.67161 13.8592 2.96739 14.0466C3.2666 14.2372 3.55206 14.3263 3.55206 14.3263H3.55894L7.85801 15.6199C8.05061 16.173 9.16837 19.4547 9.43663 20.2106C9.59484 20.6623 9.74961 20.945 9.9422 21.1601C10.0351 21.2708 10.1451 21.3629 10.2758 21.4367C10.3274 21.4643 10.3824 21.4858 10.4375 21.5043C10.4547 21.5135 10.4718 21.5166 10.4925 21.5196L10.4478 21.5104C10.4615 21.5135 10.4719 21.5227 10.4822 21.5258C10.5166 21.535 10.5406 21.5381 10.5853 21.5442C11.2663 21.7286 11.8132 21.3506 11.8132 21.3506L11.8441 21.3291L14.3823 19.2642L18.6367 22.1803L18.733 22.2172C19.6203 22.5644 20.5179 22.3708 20.9925 22.0297C21.4706 21.6856 21.6563 21.2462 21.6563 21.2462L21.6873 21.1755L24.9752 6.12809C25.0681 5.75628 25.0921 5.40906 24.989 5.07105C24.8858 4.73305 24.621 4.41655 24.3011 4.24755C23.9778 4.07547 23.658 4.02323 23.3622 4.03552ZM23.2728 5.64873C23.2693 5.6979 23.2797 5.69175 23.2556 5.78701V5.79623L19.9986 20.6869C19.9848 20.7084 19.9608 20.7545 19.8954 20.8006C19.8266 20.8498 19.7716 20.8805 19.4861 20.7791L14.2825 17.2147L11.1391 19.7743L11.7994 16.0071C11.7994 16.0071 19.9504 9.21931 20.3013 8.92739C20.6521 8.63548 20.5351 8.57402 20.5351 8.57402C20.5592 8.21758 20.0055 8.46955 20.0055 8.46955L9.28531 14.4031L9.28187 14.3877L4.14361 12.8421V12.839C4.14017 12.839 4.13329 12.836 4.12986 12.836C4.13329 12.836 4.15737 12.8267 4.15737 12.8267L4.18488 12.8145L4.2124 12.8052C4.2124 12.8052 8.80037 11.0783 13.464 9.32378C15.7993 8.44496 18.1517 7.56 19.9608 6.87785C21.7698 6.19876 23.1077 5.70097 23.1834 5.67332C23.2556 5.64873 23.2212 5.64873 23.2728 5.64873Z" fill="#EFDEE0"/>
</svg>
