<svg width="32" height="29" viewBox="0 0 32 29" fill="none" xmlns="http://www.w3.org/2000/svg">
<g clip-path="url(#clip0_8_302)">
<mask id="path-1-inside-1_8_302" fill="white">
<path d="M15.6663 6.16611C14.0868 6.15244 12.8948 6.22077 11.8965 6.69224C11.4868 6.88355 11.1962 7.12953 10.9727 7.41651C10.8535 7.56 10.7418 7.68982 10.6896 7.99047C10.6598 8.13396 10.6375 8.37311 10.8014 8.63275C10.9653 8.89923 11.3154 9.07688 11.5538 9.11105C11.7326 9.13155 12.1126 9.27504 12.1796 9.35703C12.3361 9.56201 12.3957 9.71234 12.418 9.79433C12.4404 9.87632 12.4329 9.82166 12.4329 9.82166V9.90365C12.4329 9.90365 12.4925 10.7646 12.4553 11.6529C12.4329 12.0902 12.3882 12.548 12.3137 12.8554C12.2392 13.1629 12.053 13.2381 12.3212 13.0946C12.1349 13.1971 12.202 13.2381 11.971 13.1287C11.7326 13.0262 11.1143 12.548 10.3022 11.2087C9.49016 9.86266 8.9016 9.16571 8.7675 9.01539C8.71535 8.87873 8.5887 8.59859 8.1566 8.29111C7.59784 7.89481 7.02419 7.88797 7.02419 7.88797L6.97204 7.88114H2.80745C2.80745 7.88114 2.56905 7.88797 2.29339 7.94264C2.01774 7.9973 1.62289 8.0588 1.25039 8.48243H1.24294C0.862982 8.92656 0.930032 9.3297 0.959833 9.57568C0.997083 9.82849 1.07903 10.0266 1.07903 10.0266L1.09393 10.0676L1.11628 10.1086C1.11628 10.1086 4.29746 16.3333 8.097 20.1255C11.6656 23.6923 15.8004 23.6239 15.8004 23.6239H18.1471L18.1993 23.6171C18.1993 23.6171 18.9517 23.6513 19.585 23.0021C19.9053 22.6673 19.9798 22.353 20.0171 22.1207C20.0618 21.8816 20.0618 21.6902 20.0618 21.6902V21.7449C20.0618 21.7449 20.0916 21.2939 20.2257 20.8225C20.2928 20.5902 20.3896 20.3579 20.479 20.228C20.5237 20.1529 20.5237 20.1734 20.5386 20.1529C20.7025 20.2622 20.9707 20.515 21.2538 20.8361C21.8349 21.4716 22.4905 22.353 23.4069 22.9612C24.0699 23.3916 24.6957 23.5829 25.1725 23.6513C25.4929 23.6991 25.7238 23.6923 25.8803 23.6786L29.1211 23.6239H29.1509C29.1509 23.6239 29.8214 23.6103 30.4919 23.2208C30.8197 23.0295 31.1996 22.681 31.3263 22.1822C31.4604 21.6834 31.3114 21.1436 30.9985 20.6448C31.1028 20.8156 30.9761 20.5902 30.8793 20.4125C30.7824 20.2349 30.6334 19.9957 30.4099 19.6951C29.9778 19.1074 29.2626 18.2807 28.0781 17.2284C27.5193 16.7365 27.1617 16.4632 26.9382 16.2718C27.0053 16.183 27.0127 16.1762 27.266 15.9029C27.6683 15.4724 28.2569 14.8369 29.0019 13.8872C29.8959 12.7393 30.544 11.8032 30.9612 11.0242C31.3784 10.2521 31.7137 9.60984 31.3412 8.81724C31.14 8.38677 30.7824 8.22278 30.5217 8.12029C30.2535 8.0178 30.0151 7.9768 29.7916 7.94264C29.352 7.88114 28.9646 7.88114 28.9646 7.88114L25.1874 7.90847C25.0757 7.88798 24.6436 7.81282 24.0848 8.14079C23.5335 8.4551 23.4069 8.78991 23.3771 8.8924C23.2877 9.00856 22.6619 9.82166 21.7902 11.2429C20.9111 12.6778 20.3151 13.0672 20.2406 13.1014C20.2183 13.0809 20.263 13.0877 20.1586 13.0331C20.114 12.9989 20.0692 12.9716 20.032 12.6026C20.0022 12.2336 20.0394 11.6529 20.0394 10.9696C20.0394 9.50052 20.181 8.73524 20.0991 8.00413C20.0618 7.63516 19.8979 7.1842 19.5403 6.88355C19.1827 6.58974 18.7953 6.48042 18.393 6.38476C17.7597 6.24127 16.903 6.17977 15.6663 6.16611ZM15.6514 7.91531C16.8061 7.92897 17.6182 8.01097 17.9162 8.07929C18.1695 8.14079 18.2067 8.16812 18.1993 8.15446C18.1993 8.16812 18.1993 8.16129 18.1993 8.18179C18.2291 8.4756 18.1322 9.41852 18.1322 10.9696C18.1322 11.5777 18.0801 12.1653 18.1322 12.7529C18.1844 13.3406 18.4153 14.058 19.0933 14.4816H19.1007C19.0188 14.4338 19.9575 15.0761 20.8515 14.7823C21.7455 14.4816 22.4533 13.73 23.459 12.097C24.3381 10.6484 24.9863 9.83533 24.9863 9.83533L25.0459 9.75333L25.0906 9.67134C25.0906 9.67134 25.0757 9.66451 25.0906 9.65767L28.9646 9.63034C28.9646 9.63034 29.2328 9.63034 29.4936 9.67134C29.501 9.67134 29.5085 9.67134 29.5159 9.67134C29.4787 9.685 29.5085 9.77383 29.2477 10.259C28.9125 10.8807 28.309 11.769 27.4523 12.8691C26.7445 13.7642 26.2156 14.345 25.8207 14.7686C25.4258 15.1854 25.1278 15.3836 24.9341 15.9302C24.8373 16.1967 24.8596 16.593 25.0012 16.8595C25.1353 17.1191 25.2992 17.2626 25.4631 17.4061C25.7909 17.6931 26.1783 17.9732 26.7445 18.4857C27.8546 19.4696 28.4804 20.1939 28.8305 20.6722C29.0093 20.9181 29.1136 21.089 29.1807 21.212C29.2477 21.3349 29.203 21.2871 29.352 21.5194C29.4787 21.7312 29.4563 21.7586 29.4563 21.7449C29.3297 21.8132 29.0093 21.8747 29.0019 21.8747L25.7611 21.9294L25.6717 21.9499C25.6717 21.9499 25.6791 21.9567 25.478 21.9294C25.2694 21.8952 24.9416 21.8132 24.5244 21.5399C24.0103 21.2051 23.3622 20.4262 22.7215 19.7156C22.4086 19.3671 22.0882 19.0255 21.6859 18.7521C21.2836 18.4788 20.6504 18.226 20.0022 18.4242C19.4434 18.5882 19.0784 18.964 18.8474 19.3124C18.6165 19.6677 18.4824 20.0367 18.3781 20.3715C18.1844 21.048 18.1546 21.6561 18.1546 21.6561V21.7107C18.1546 21.7107 18.1546 21.7517 18.1397 21.8132C18.1024 21.8269 18.0503 21.8611 18.0205 21.8747H15.7408C15.7408 21.8747 12.5894 22.0251 9.49761 18.9503C6.18978 15.6364 3.247 10.095 3.00115 9.63034H6.83793C6.87519 9.64401 7.00929 9.69184 6.99439 9.685C6.90499 9.61668 7.03909 9.767 7.03909 9.767L7.09869 9.89682L7.20299 10.0061C7.20299 10.0061 7.79154 10.6621 8.6334 12.056C9.53486 13.5524 10.2948 14.3313 11.1441 14.7071C11.9934 15.0829 12.8874 14.8164 13.2673 14.6183C13.9751 14.2425 14.057 13.7164 14.1762 13.2312C14.2955 12.7461 14.3327 12.2268 14.3551 11.7212C14.3997 10.7509 14.3401 9.92415 14.3401 9.86266C14.3327 9.84216 14.3327 9.60301 14.2582 9.34336C14.1762 9.07688 14.0272 8.72841 13.7441 8.35944C13.6249 8.20912 13.5132 8.28428 13.3865 8.17495C13.9155 8.0383 14.4817 7.90164 15.6514 7.91531Z"/>
</mask>
<path d="M15.6663 6.16611C14.0868 6.15244 12.8948 6.22077 11.8965 6.69224C11.4868 6.88355 11.1962 7.12953 10.9727 7.41651C10.8535 7.56 10.7418 7.68982 10.6896 7.99047C10.6598 8.13396 10.6375 8.37311 10.8014 8.63275C10.9653 8.89923 11.3154 9.07688 11.5538 9.11105C11.7326 9.13155 12.1126 9.27504 12.1796 9.35703C12.3361 9.56201 12.3957 9.71234 12.418 9.79433C12.4404 9.87632 12.4329 9.82166 12.4329 9.82166V9.90365C12.4329 9.90365 12.4925 10.7646 12.4553 11.6529C12.4329 12.0902 12.3882 12.548 12.3137 12.8554C12.2392 13.1629 12.053 13.2381 12.3212 13.0946C12.1349 13.1971 12.202 13.2381 11.971 13.1287C11.7326 13.0262 11.1143 12.548 10.3022 11.2087C9.49016 9.86266 8.9016 9.16571 8.7675 9.01539C8.71535 8.87873 8.5887 8.59859 8.1566 8.29111C7.59784 7.89481 7.02419 7.88797 7.02419 7.88797L6.97204 7.88114H2.80745C2.80745 7.88114 2.56905 7.88797 2.29339 7.94264C2.01774 7.9973 1.62289 8.0588 1.25039 8.48243H1.24294C0.862982 8.92656 0.930032 9.3297 0.959833 9.57568C0.997083 9.82849 1.07903 10.0266 1.07903 10.0266L1.09393 10.0676L1.11628 10.1086C1.11628 10.1086 4.29746 16.3333 8.097 20.1255C11.6656 23.6923 15.8004 23.6239 15.8004 23.6239H18.1471L18.1993 23.6171C18.1993 23.6171 18.9517 23.6513 19.585 23.0021C19.9053 22.6673 19.9798 22.353 20.0171 22.1207C20.0618 21.8816 20.0618 21.6902 20.0618 21.6902V21.7449C20.0618 21.7449 20.0916 21.2939 20.2257 20.8225C20.2928 20.5902 20.3896 20.3579 20.479 20.228C20.5237 20.1529 20.5237 20.1734 20.5386 20.1529C20.7025 20.2622 20.9707 20.515 21.2538 20.8361C21.8349 21.4716 22.4905 22.353 23.4069 22.9612C24.0699 23.3916 24.6957 23.5829 25.1725 23.6513C25.4929 23.6991 25.7238 23.6923 25.8803 23.6786L29.1211 23.6239H29.1509C29.1509 23.6239 29.8214 23.6103 30.4919 23.2208C30.8197 23.0295 31.1996 22.681 31.3263 22.1822C31.4604 21.6834 31.3114 21.1436 30.9985 20.6448C31.1028 20.8156 30.9761 20.5902 30.8793 20.4125C30.7824 20.2349 30.6334 19.9957 30.4099 19.6951C29.9778 19.1074 29.2626 18.2807 28.0781 17.2284C27.5193 16.7365 27.1617 16.4632 26.9382 16.2718C27.0053 16.183 27.0127 16.1762 27.266 15.9029C27.6683 15.4724 28.2569 14.8369 29.0019 13.8872C29.8959 12.7393 30.544 11.8032 30.9612 11.0242C31.3784 10.2521 31.7137 9.60984 31.3412 8.81724C31.14 8.38677 30.7824 8.22278 30.5217 8.12029C30.2535 8.0178 30.0151 7.9768 29.7916 7.94264C29.352 7.88114 28.9646 7.88114 28.9646 7.88114L25.1874 7.90847C25.0757 7.88798 24.6436 7.81282 24.0848 8.14079C23.5335 8.4551 23.4069 8.78991 23.3771 8.8924C23.2877 9.00856 22.6619 9.82166 21.7902 11.2429C20.9111 12.6778 20.3151 13.0672 20.2406 13.1014C20.2183 13.0809 20.263 13.0877 20.1586 13.0331C20.114 12.9989 20.0692 12.9716 20.032 12.6026C20.0022 12.2336 20.0394 11.6529 20.0394 10.9696C20.0394 9.50052 20.181 8.73524 20.0991 8.00413C20.0618 7.63516 19.8979 7.1842 19.5403 6.88355C19.1827 6.58974 18.7953 6.48042 18.393 6.38476C17.7597 6.24127 16.903 6.17977 15.6663 6.16611ZM15.6514 7.91531C16.8061 7.92897 17.6182 8.01097 17.9162 8.07929C18.1695 8.14079 18.2067 8.16812 18.1993 8.15446C18.1993 8.16812 18.1993 8.16129 18.1993 8.18179C18.2291 8.4756 18.1322 9.41852 18.1322 10.9696C18.1322 11.5777 18.0801 12.1653 18.1322 12.7529C18.1844 13.3406 18.4153 14.058 19.0933 14.4816H19.1007C19.0188 14.4338 19.9575 15.0761 20.8515 14.7823C21.7455 14.4816 22.4533 13.73 23.459 12.097C24.3381 10.6484 24.9863 9.83533 24.9863 9.83533L25.0459 9.75333L25.0906 9.67134C25.0906 9.67134 25.0757 9.66451 25.0906 9.65767L28.9646 9.63034C28.9646 9.63034 29.2328 9.63034 29.4936 9.67134C29.501 9.67134 29.5085 9.67134 29.5159 9.67134C29.4787 9.685 29.5085 9.77383 29.2477 10.259C28.9125 10.8807 28.309 11.769 27.4523 12.8691C26.7445 13.7642 26.2156 14.345 25.8207 14.7686C25.4258 15.1854 25.1278 15.3836 24.9341 15.9302C24.8373 16.1967 24.8596 16.593 25.0012 16.8595C25.1353 17.1191 25.2992 17.2626 25.4631 17.4061C25.7909 17.6931 26.1783 17.9732 26.7445 18.4857C27.8546 19.4696 28.4804 20.1939 28.8305 20.6722C29.0093 20.9181 29.1136 21.089 29.1807 21.212C29.2477 21.3349 29.203 21.2871 29.352 21.5194C29.4787 21.7312 29.4563 21.7586 29.4563 21.7449C29.3297 21.8132 29.0093 21.8747 29.0019 21.8747L25.7611 21.9294L25.6717 21.9499C25.6717 21.9499 25.6791 21.9567 25.478 21.9294C25.2694 21.8952 24.9416 21.8132 24.5244 21.5399C24.0103 21.2051 23.3622 20.4262 22.7215 19.7156C22.4086 19.3671 22.0882 19.0255 21.6859 18.7521C21.2836 18.4788 20.6504 18.226 20.0022 18.4242C19.4434 18.5882 19.0784 18.964 18.8474 19.3124C18.6165 19.6677 18.4824 20.0367 18.3781 20.3715C18.1844 21.048 18.1546 21.6561 18.1546 21.6561V21.7107C18.1546 21.7107 18.1546 21.7517 18.1397 21.8132C18.1024 21.8269 18.0503 21.8611 18.0205 21.8747H15.7408C15.7408 21.8747 12.5894 22.0251 9.49761 18.9503C6.18978 15.6364 3.247 10.095 3.00115 9.63034H6.83793C6.87519 9.64401 7.00929 9.69184 6.99439 9.685C6.90499 9.61668 7.03909 9.767 7.03909 9.767L7.09869 9.89682L7.20299 10.0061C7.20299 10.0061 7.79154 10.6621 8.6334 12.056C9.53486 13.5524 10.2948 14.3313 11.1441 14.7071C11.9934 15.0829 12.8874 14.8164 13.2673 14.6183C13.9751 14.2425 14.057 13.7164 14.1762 13.2312C14.2955 12.7461 14.3327 12.2268 14.3551 11.7212C14.3997 10.7509 14.3401 9.92415 14.3401 9.86266C14.3327 9.84216 14.3327 9.60301 14.2582 9.34336C14.1762 9.07688 14.0272 8.72841 13.7441 8.35944C13.6249 8.20912 13.5132 8.28428 13.3865 8.17495C13.9155 8.0383 14.4817 7.90164 15.6514 7.91531Z" fill="#EFDEE0" stroke="#EFDEE0" stroke-width="5" mask="url(#path-1-inside-1_8_302)"/>
</g>
<defs>
<clipPath id="clip0_8_302">
<rect width="30.5155" height="27.9872" fill="white" transform="translate(0.989746 0.884399)"/>
</clipPath>
</defs>
</svg>
