<svg width="24" height="22" viewBox="0 0 24 22" fill="none" xmlns="http://www.w3.org/2000/svg">
<g clip-path="url(#clip0_8_298)">
<path d="M23.3815 10.6156C23.3815 16.2568 18.356 20.8309 12.148 20.8309C10.174 20.8309 8.33353 20.3674 6.7124 19.5628L0.494873 21.3732L2.52606 15.8895C1.46545 14.2992 0.904436 12.4711 0.904925 10.6069C0.914461 4.95697 5.94951 0.382812 12.1575 0.382812C18.3464 0.382812 23.3815 4.95697 23.3815 10.6156ZM12.148 2.00082C6.94126 2.00082 2.70724 5.8578 2.70724 10.5981C2.70724 12.4785 3.37477 14.219 4.50003 15.6358L3.31755 18.8369L6.94126 17.7873C8.48805 18.7172 10.2985 19.2098 12.148 19.2042C17.3547 19.2042 21.5887 15.356 21.5887 10.6069C21.5761 8.31968 20.5753 6.13037 18.8056 4.51881C17.0359 2.90725 14.6418 2.00491 12.148 2.00957M17.8219 12.9595C17.7456 12.8546 17.5645 12.7934 17.2879 12.6709C17.0209 12.5485 15.6668 11.9363 15.4093 11.8576C15.1614 11.7701 14.9706 11.7264 14.7895 11.98C14.5987 12.2336 14.0743 12.7934 13.9217 12.9595C13.7596 13.1345 13.5974 13.152 13.3209 13.0295C13.0444 12.8983 12.1575 12.6359 11.1085 11.7788C10.5095 11.2739 9.99533 10.6903 9.58276 10.0471C9.41111 9.7935 9.55415 9.66231 9.69719 9.53987C9.82116 9.42617 9.97374 9.2425 10.1072 9.10257C10.2503 8.95389 10.298 8.84019 10.3838 8.68276C10.4792 8.50784 10.4315 8.3679 10.3647 8.24546C10.2884 8.11427 9.74487 6.88109 9.50647 6.38256C9.2776 5.8753 9.04874 5.96276 8.89616 5.96276C8.73405 5.96276 8.54333 5.93652 8.36214 5.93652C8.17142 5.93652 7.88534 6.00649 7.62786 6.25137C7.37992 6.50501 6.67425 7.10848 6.67425 8.35041C6.67425 9.57485 7.65647 10.7643 7.78998 10.9392C7.92348 11.1054 9.69719 13.7117 12.4913 14.7175C15.2949 15.7233 15.2949 15.3909 15.8003 15.3472C16.3057 15.3035 17.4214 14.735 17.6598 14.1578C17.8887 13.5718 17.8887 13.0645 17.8219 12.9595Z" fill="#EFDEE0"/>
</g>
<defs>
<clipPath id="clip0_8_298">
<rect width="22.8866" height="20.9904" fill="white" transform="translate(0.494873 0.382812)"/>
</clipPath>
</defs>
</svg>
